{
    "asset" : {
        "generator" : "Khronos glTF Blender I/O v1.0.5",
        "version" : "2.0"
    },
    "scene" : 0,
    "scenes" : [
        {
            "name" : "Scene",
            "nodes" : [
                0
            ]
        }
    ],
    "nodes" : [
        {
            "mesh" : 0,
            "name" : "Cyborg",
            "rotation" : [
                0.7071068286895752,
                0,
                0,
                0.7071067094802856
            ]
        }
    ],
    "materials" : [
        {
            "doubleSided" : true,
            "name" : "Cyborg",
            "pbrMetallicRoughness" : {}
        }
    ],
    "meshes" : [
        {
            "name" : "Cyborg",
            "primitives" : [
                {
                    "attributes" : {
                        "POSITION" : 0,
                        "NORMAL" : 1,
                        "TEXCOORD_0" : 2
                    },
                    "indices" : 3,
                    "material" : 0
                }
            ]
        }
    ],
    "accessors" : [
        {
            "bufferView" : 0,
            "componentType" : 5126,
            "count" : 3703,
            "max" : [
                1.615435004234314,
                3.7520999908447266,
                0.3836419880390167
            ],
            "min" : [
                -1.6151360273361206,
                -0.0016459999606013298,
                -0.48255598545074463
            ],
            "type" : "VEC3"
        },
        {
            "bufferView" : 1,
            "componentType" : 5126,
            "count" : 3703,
            "type" : "VEC3"
        },
        {
            "bufferView" : 2,
            "componentType" : 5126,
            "count" : 3703,
            "type" : "VEC2"
        },
        {
            "bufferView" : 3,
            "componentType" : 5123,
            "count" : 16647,
            "type" : "SCALAR"
        }
    ],
    "bufferViews" : [
        {
            "buffer" : 0,
            "byteLength" : 44436,
            "byteOffset" : 0
        },
        {
            "buffer" : 0,
            "byteLength" : 44436,
            "byteOffset" : 44436
        },
        {
            "buffer" : 0,
            "byteLength" : 29624,
            "byteOffset" : 88872
        },
        {
            "buffer" : 0,
            "byteLength" : 33294,
            "byteOffset" : 118496
        }
    ],
    "buffers" : [
        {
            "byteLength" : 151792,
            "uri" : "cyborg.bin"
        }
    ]
}
